<svg width="11" height="32" viewBox="0 0 11 32" fill="none" xmlns="http://www.w3.org/2000/svg">
<path d="M2.98196 0.0642033C2.92234 0.124489 2.87762 5.20347 2.87762 11.3374L2.86272 22.5052L2.192 22.9422C0.850565 23.8013 -0.0884403 25.9565 0.120228 27.6444C0.328895 29.3324 1.43185 30.8697 3.01177 31.6534C3.57815 31.9397 3.95077 32 5.11335 32C6.32064 32 6.64855 31.9397 7.27455 31.6383C9.79347 30.3723 10.807 27.2827 9.555 24.7206C9.24199 24.0876 7.78132 22.5805 7.48322 22.5805C7.4087 22.5805 7.33417 17.9838 7.31927 11.3073L7.27455 0.0491333L5.17297 0.0039196C4.0253 -0.0111504 3.04158 0.0189896 2.98196 0.0642033ZM6.60384 6.00224V11.2771H5.11335H3.62287V6.00224V0.727335H5.11335H6.60384V6.00224Z" fill="black"/>
</svg>
