<svg width="37" height="31" viewBox="0 0 37 31" fill="none" xmlns="http://www.w3.org/2000/svg">
<path d="M27.3491 0.0858128C27.273 0.161893 27.2477 0.669096 27.2477 1.97937C27.2477 3.87293 27.273 4.01664 27.645 3.94056C27.7887 3.9152 27.7972 3.77149 27.7972 1.97092C27.7972 0.0858128 27.7887 0.026639 27.6281 0.00127888C27.5351 -0.00717449 27.4083 0.026639 27.3491 0.0858128Z" fill="black"/>
<path d="M31.6181 3.40802C30.4853 4.862 30.3416 5.18323 30.7981 5.18323C30.9587 5.18323 31.2123 4.91272 32.083 3.83069C32.8861 2.82473 33.1566 2.42742 33.1397 2.26681C33.1312 2.10619 33.0721 2.04702 32.9114 2.03011C32.7255 2.01321 32.5564 2.19073 31.6181 3.40802Z" fill="black"/>
<path d="M21.4656 2.56261C21.4402 2.6387 21.4486 2.7655 21.4825 2.83312C21.6515 3.12899 23.7564 5.47903 23.9001 5.52975C24.103 5.59738 24.3228 5.37759 24.2552 5.17471C24.2214 5.08172 23.6972 4.43927 23.0801 3.74609C22.2517 2.80776 21.9051 2.46963 21.7361 2.45272C21.6008 2.43581 21.4994 2.47808 21.4656 2.56261Z" fill="black"/>
<path d="M26.8504 4.55767C25.464 4.78591 24.3397 5.63125 23.7057 6.90771C23.3507 7.60934 23.2492 8.17572 23.2915 9.06332C23.3338 9.76495 23.3929 10.0101 23.7395 10.8385C23.8072 10.9907 23.7818 10.9991 23.3084 10.94C22.6744 10.8723 21.6177 11.0499 20.9584 11.3457C20.6794 11.4641 20.4512 11.5571 20.4512 11.5486C20.4427 11.5317 20.3497 11.2528 20.2483 10.9315C19.031 7.0176 13.9505 5.83413 11.0172 8.77591C10.2902 9.49445 9.84216 10.2637 9.61392 11.1682C9.47867 11.7261 9.46176 11.7515 9.25043 11.7008C8.75168 11.574 7.39068 11.5486 6.95111 11.6501C4.92229 12.115 3.3246 14.0339 3.3246 15.9951C3.3246 16.3501 3.31615 16.3586 2.96111 16.4685C2.09886 16.7221 1.19435 17.3054 0.797041 17.8718C0.0277826 18.9369 -0.073658 20.5261 0.543439 21.7772C1.11827 22.9438 2.57225 23.899 3.80645 23.9075C4.04314 23.9075 4.11077 23.8483 4.37282 23.4172L4.66869 22.9353L4.11922 22.8762C1.91289 22.6479 0.653333 20.7797 1.46486 18.9369C1.79454 18.2014 2.1834 17.914 3.49367 17.4829L4.38128 17.187L4.42354 16.2149C4.46581 15.3357 4.49962 15.192 4.75323 14.6764C5.09981 13.9747 5.83526 13.2562 6.51153 12.935C6.95111 12.7321 7.10327 12.7067 7.94015 12.7067H8.87848L9.63083 13.0871C10.045 13.2985 10.4085 13.476 10.4508 13.4929C10.4846 13.5098 10.51 13.2393 10.51 12.9012C10.51 11.4894 10.9157 10.4243 11.7695 9.57898C12.7163 8.64911 13.7223 8.23489 15.0325 8.23489C16.309 8.24335 17.4333 8.74209 18.2871 9.68042C19.124 10.5934 19.386 11.3796 19.386 12.9519V14.0593L20.0454 13.4084C20.8823 12.5799 21.3641 12.2841 22.1672 12.1065C22.7082 11.9797 22.8942 11.9797 23.3845 12.0643C25.4133 12.4109 26.7236 14.203 26.4023 16.1895C26.3516 16.5361 26.3178 16.832 26.3347 16.8404C26.3432 16.8489 26.5883 16.9081 26.8673 16.9672C27.5097 17.1109 27.9324 17.3223 28.3973 17.7534C28.8792 18.193 29.0736 18.5142 29.2342 19.1313C29.5555 20.374 28.7947 21.9547 27.5605 22.6056L27.1124 22.8339L27.29 23.3326C27.3829 23.6031 27.4928 23.8229 27.5351 23.8229C27.5689 23.8229 27.8394 23.6961 28.1184 23.544C29.1412 23.0114 30.0458 21.8195 30.2909 20.6867C30.3501 20.4162 30.3839 19.8837 30.3585 19.4525C30.3332 18.8016 30.2825 18.5987 30.0373 18.1084C29.6569 17.3223 28.913 16.5953 28.1607 16.2572C27.6112 16.012 27.5943 15.9951 27.5858 15.6908C27.5858 15.1329 27.3407 14.1015 27.0955 13.5943L26.8588 13.0871H27.5858C28.0085 13.0871 28.5072 13.028 28.7777 12.9519C30.8235 12.3517 32.176 10.2045 31.821 8.125C31.5082 6.31597 30.0373 4.84508 28.2621 4.55767C27.6365 4.45623 27.4675 4.45623 26.8504 4.55767ZM28.186 5.31002C30.0542 5.65661 31.3729 7.49945 31.0686 9.33383C30.7474 11.2697 28.9384 12.6053 27.0364 12.3179C25.9205 12.1404 24.8723 11.3626 24.3482 10.306C24.0946 9.78186 24.0777 9.69733 24.0777 8.81818C24.0777 7.94748 24.0946 7.85449 24.3482 7.32193C24.8131 6.34133 25.7176 5.60589 26.7827 5.34383C27.3153 5.20858 27.6196 5.20012 28.186 5.31002Z" fill="black"/>
<path d="M34.1373 7.38946C32.9031 7.54162 32.5057 7.61771 32.4297 7.7276C32.3113 7.88821 32.4212 8.18408 32.5987 8.18408C33.0045 8.18408 36.1661 7.75296 36.2252 7.69379C36.276 7.64307 36.2929 7.52472 36.276 7.41482C36.2421 7.14432 36.0984 7.14432 34.1373 7.38946Z" fill="black"/>
<path d="M18.8365 7.81218C18.6928 7.96434 18.6844 8.01506 18.7858 8.17567C18.845 8.26021 19.3437 8.33629 20.654 8.44618C21.6346 8.53072 22.4968 8.57298 22.5645 8.54762C22.6997 8.4969 22.7251 8.13341 22.5898 8.05733C22.5391 8.02351 21.8882 7.94743 21.1359 7.8798C20.3835 7.82063 19.5889 7.753 19.3691 7.72764C19.0817 7.69383 18.9295 7.71919 18.8365 7.81218Z" fill="black"/>
<path d="M32.0661 11.2949C31.897 11.3541 31.8294 11.4725 31.8716 11.6415C31.9223 11.8275 34.974 13.4421 35.2192 13.4083C35.5066 13.366 35.5066 13.0532 35.2192 12.8588C34.712 12.5038 32.1844 11.2527 32.0661 11.2949Z" fill="black"/>
<path d="M28.8031 13.383C28.7693 13.4506 29.0229 14.296 29.361 15.2428C29.9612 16.9334 29.9781 16.9757 30.2063 16.9757C30.3416 16.9757 30.4599 16.9165 30.4938 16.8489C30.5191 16.7813 30.2655 15.9528 29.9274 15.0145C29.3441 13.383 29.3103 13.2985 29.082 13.2731C28.9299 13.2562 28.8369 13.29 28.8031 13.383Z" fill="black"/>
<path d="M13.9504 21.0163C13.8575 22.0138 13.5024 23.2057 13.0037 24.2117C12.7501 24.7274 12.5134 25.2599 12.488 25.4036C12.4119 25.8009 12.7078 26.3842 13.1389 26.6716C13.4517 26.8745 13.5785 26.9083 14.1026 26.9083C14.6267 26.9083 14.7535 26.8745 15.0663 26.6716C15.5059 26.3842 15.7933 25.8094 15.7257 25.3698C15.7003 25.2176 15.5397 24.8711 15.3791 24.6006C14.8127 23.6622 14.3139 22.1491 14.1787 20.9318C14.1449 20.6613 14.0942 20.4415 14.0603 20.4415C14.0265 20.4415 13.9758 20.7035 13.9504 21.0163Z" fill="black"/>
<path d="M20.7977 21.5827C20.7047 22.0392 20.5103 22.6309 20.3074 23.0452C20.0031 23.6876 19.9777 23.7806 20.0623 24.0427C20.3159 24.8119 21.4909 24.8542 21.8037 24.1103C21.9305 23.8144 21.922 23.7891 21.6008 23.1128C21.2965 22.5041 21.0344 21.6334 20.9752 21.0333C20.9583 20.9149 20.8823 21.1601 20.7977 21.5827Z" fill="black"/>
<path d="M7.99928 23.6116C7.83021 25.2093 7.33146 26.7647 6.63828 27.9228C6.12263 28.7766 6.25788 29.6304 7.00178 30.1714C7.62733 30.6195 8.63328 30.6448 9.27574 30.2222C9.96892 29.7657 10.1972 28.8442 9.79985 28.1342C8.84462 26.4519 8.48112 25.3445 8.16835 23.1467L8.10072 22.6817L7.99928 23.6116Z" fill="black"/>
<path d="M18.5406 25.2853C18.5406 26.1729 18.0419 27.8636 17.484 28.8527C17.0275 29.6726 17.1036 30.239 17.746 30.7209C18.1771 31.0505 18.8619 31.0928 19.3775 30.8223C19.8594 30.5772 20.0707 30.2813 20.1214 29.791C20.1637 29.4529 20.1299 29.3345 19.834 28.8358C19.2592 27.8467 18.8788 26.714 18.7435 25.5728C18.6759 25.0317 18.5406 24.8373 18.5406 25.2853Z" fill="black"/>
<path d="M22.2111 14.2745C21.1882 14.7986 21.0783 15.8553 21.9828 16.5315C22.2956 16.7513 22.9296 16.7598 23.2677 16.54L23.5129 16.3794L23.1832 16.1004C22.9972 15.9483 22.7774 15.8215 22.676 15.8215C22.583 15.8215 22.4309 15.7454 22.3379 15.6439C22.1434 15.4326 22.2364 15.2466 22.6506 15.0437C23.5129 14.5957 24.7555 15.3143 24.7555 16.2526C24.7555 17.0387 24.2991 17.622 23.5974 17.7319C23.3776 17.7657 22.7436 17.7488 22.1773 17.6897C20.7655 17.5544 19.2524 17.5713 18.5846 17.7319C17.7054 17.9348 16.8939 18.3913 16.1246 19.0929C15.1863 19.9552 14.7298 20.158 13.6224 20.2003C12.1346 20.2595 10.2242 19.7269 7.78959 18.5857C6.64839 18.0447 5.97212 17.7826 5.10142 17.5629C5.00843 17.5375 5.12678 17.5375 5.35502 17.5629C5.82841 17.6136 6.50468 17.8418 7.6797 18.3321C9.27739 19.0084 11.0188 19.2704 12.2952 19.0337C13.7154 18.7717 14.9834 18.0532 15.3892 17.267C16.0824 15.9398 15.1779 14.2153 13.7915 14.2153C13.2505 14.2153 12.8109 14.3844 12.4812 14.7225C12.1854 15.0099 12.16 15.086 12.16 15.4918C12.16 16.0835 12.3798 16.4555 12.8616 16.6668C13.5294 16.9711 13.876 16.8697 13.7915 16.3878C13.7492 16.1004 13.7239 16.0751 13.4618 16.0751C12.8785 16.0751 12.6418 15.4664 13.0899 15.1283C13.3688 14.9254 14.0282 14.9085 14.3156 15.0945C14.8144 15.4241 15.068 16.2272 14.8397 16.7682C14.6707 17.1655 14.2733 17.5206 13.6393 17.8418C12.0755 18.6111 10.1227 18.5857 8.15309 17.7488C6.10737 16.8781 5.33811 16.6922 4.08701 16.7767C2.84436 16.8612 1.65244 17.2585 0.604217 17.9517C0.0378399 18.3152 -0.0213338 18.442 0.240721 18.7801C0.333708 18.8985 0.409789 19.0253 0.409789 19.076C0.409789 19.1267 0.807098 19.169 1.40729 19.1775C3.19941 19.1944 4.83936 19.7861 6.45396 20.9865C7.47682 21.7557 7.88258 21.9924 8.70256 22.3137C10.0974 22.8716 11.9571 23.1421 13.8084 23.066C15.6682 22.9899 16.6149 22.6772 17.6547 21.7811C18.2549 21.257 19.134 20.8005 19.8441 20.6399C20.14 20.5723 20.6472 20.5469 21.3235 20.5807C22.3886 20.623 22.5915 20.6737 25.4656 21.5275C26.666 21.8825 27.5367 21.984 28.1031 21.8234C28.9484 21.5867 29.4979 20.6652 29.481 19.5156C29.4725 18.814 29.3795 18.5181 29.016 17.994C28.027 16.5907 25.6685 17.0895 25.5333 18.7294C25.4741 19.4733 25.8798 20.1665 26.4039 20.2172C26.7336 20.251 26.9196 20.2172 27.0887 20.0904C27.2408 19.9721 27.2324 19.9552 26.8097 19.5579C26.5392 19.3127 26.3617 19.076 26.3617 18.9661C26.3617 18.4251 26.9112 17.9686 27.4606 18.0447C28.3905 18.1715 28.8723 19.1775 28.5088 20.2426C28.4328 20.4624 28.2806 20.716 28.1623 20.809C27.6804 21.1894 27.1309 21.1302 24.9922 20.4708C23.0395 19.8706 22.1773 19.6931 21.036 19.6847C19.4722 19.6762 18.2295 20.1158 17.1137 21.071C16.505 21.5867 15.9725 21.8656 15.2708 22.0347C13.5971 22.432 10.7229 22.1869 8.98152 21.4852C8.33061 21.2232 7.82341 20.9104 6.53849 19.9552C5.6847 19.3296 4.69566 18.8393 3.73197 18.5773L2.98807 18.3659H3.7996C4.89008 18.3575 5.65934 18.5604 7.13023 19.262C11.1456 21.1555 13.969 21.5951 15.6935 20.5892C15.9133 20.4624 16.3613 20.0989 16.691 19.7861C17.3673 19.1436 18.0689 18.7548 18.8973 18.5604C19.3707 18.442 19.7004 18.4336 20.7824 18.4927C21.501 18.535 22.5492 18.5604 23.1071 18.5688C23.9863 18.5688 24.1638 18.5434 24.4597 18.3828C25.2036 17.9855 25.5333 17.4191 25.584 16.4386C25.6178 15.8468 25.5924 15.6947 25.4318 15.365C24.8823 14.2153 23.3523 13.6997 22.2111 14.2745Z" fill="black"/>
</svg>
