<svg width="51" height="17" viewBox="0 0 51 17" fill="none" xmlns="http://www.w3.org/2000/svg">
<path d="M0.0911865 0.658751C0.0911865 1.28749 0.121127 1.3324 0.630109 1.46713C0.98939 1.57192 1.57322 1.99109 2.26185 2.67971C3.57921 3.93719 4.32771 4.32642 5.55526 4.32642C6.7828 4.32642 7.57622 3.92222 8.84867 2.69468C10.675 0.913242 11.6032 0.913242 13.4145 2.69468C14.672 3.92222 15.4205 4.31145 16.5433 4.32642C17.8906 4.32642 18.4445 4.07192 19.7918 2.81444C21.8277 0.898272 22.681 0.868332 24.5373 2.69468C25.8696 3.99707 26.5283 4.32642 27.8008 4.32642C29.0882 4.31145 29.7319 3.99707 31.0343 2.70965C32.8606 0.913242 33.8038 0.913242 35.6451 2.69468C36.9175 3.92222 37.7109 4.32642 38.9385 4.32642C40.166 4.32642 40.8846 3.95216 42.2768 2.6348C44.0882 0.913242 44.9115 0.913242 46.7229 2.67971C47.8756 3.78749 48.8038 4.31145 49.6121 4.32642C50.0762 4.32642 50.0912 4.31145 50.0912 3.72761C50.0912 3.11384 50.0612 3.0839 49.3127 2.91923C49.0882 2.85935 48.3397 2.29049 47.6511 1.64678C46.2738 0.35935 45.69 0.0749187 44.4026 0.089889C43.2648 0.089889 42.5912 0.41923 41.4385 1.52701C40.0612 2.82941 39.8217 2.97911 38.9684 2.97911C38.0403 2.97911 37.8157 2.85935 36.5133 1.61684C35.2409 0.37432 34.6271 0.089889 33.3247 0.089889C32.0822 0.0749187 31.3786 0.4342 30.0912 1.72163C29.0133 2.7845 28.669 2.97911 27.7708 2.97911C26.9774 2.97911 26.708 2.81444 25.5403 1.70666C24.2229 0.44917 23.4744 0.0749187 22.2469 0.0749187C20.9894 0.0749187 20.3756 0.37432 19.0283 1.64678C17.7858 2.82941 17.5163 2.97911 16.7229 2.97911C15.8247 2.97911 15.4205 2.76953 14.3876 1.72163C13.1451 0.44917 12.4265 0.0749187 11.169 0.089889C9.86664 0.089889 9.25286 0.37432 7.98041 1.61684C6.67801 2.85935 6.45346 2.97911 5.51035 2.97911C4.67202 2.97911 4.08819 2.61983 2.9355 1.40725C2.17202 0.628811 1.4834 0.224619 0.660049 0.089889L0.0911865 6.86646e-05V0.658751Z" fill="black"/>
<path d="M0.0911865 6.79639C0.0911865 7.38022 0.136097 7.47004 0.405558 7.47004C0.8846 7.47004 1.28879 7.7395 2.44149 8.83232C3.72891 10.0748 4.32771 10.3593 5.63011 10.3593C6.85765 10.3593 7.57622 10.015 8.65406 8.8922C9.7319 7.76944 10.2259 7.47004 11.0792 7.47004C11.9774 7.47004 12.2169 7.60477 13.4894 8.80238C14.8367 10.0748 15.4505 10.3742 16.708 10.3593C17.9804 10.3593 18.6541 10.015 20.0163 8.66765C21.1391 7.55986 21.5882 7.36525 22.7259 7.51495C23.205 7.57483 23.5193 7.78441 24.3876 8.63771C25.7948 9.98501 26.5133 10.3593 27.7858 10.3593C29.0283 10.3593 29.7768 9.99998 31.0792 8.7425C32.2618 7.60477 32.5163 7.47004 33.4145 7.47004C34.2678 7.47004 34.7618 7.76944 35.8696 8.90717C36.8726 9.95507 37.7259 10.3742 38.9385 10.3593C40.166 10.3593 40.7948 10.0449 42.0523 8.83232C43.3397 7.60477 43.5792 7.47004 44.4774 7.47004C45.3756 7.47004 45.6151 7.60477 46.9026 8.83232C48.0103 9.91016 48.5942 10.2545 49.4924 10.3443C50.0014 10.3892 50.0163 10.3742 50.0612 9.77543C50.1062 9.17663 50.0912 9.16166 49.4624 8.98202C49.0283 8.84729 48.5044 8.47304 47.7708 7.75447C46.4984 6.52693 45.705 6.12274 44.4774 6.12274C43.2648 6.12274 42.5014 6.49699 41.2738 7.69459C39.3726 9.52094 38.5493 9.55088 36.7379 7.81435C35.3307 6.48202 34.6421 6.13771 33.3547 6.12274C32.0822 6.12274 31.5732 6.37723 30.196 7.67962C28.2499 9.53591 27.3367 9.55088 25.4954 7.75447C24.163 6.45208 23.5044 6.12274 22.2319 6.12274C20.9295 6.13771 20.2559 6.46705 18.9684 7.75447C17.172 9.56585 16.2589 9.55088 14.2978 7.67962C12.9205 6.37723 12.4115 6.12274 11.1391 6.12274C9.85167 6.13771 9.16304 6.48202 7.75586 7.81435C6.82771 8.71256 6.46843 8.95208 5.97442 9.02693C5.10616 9.17663 4.38759 8.83232 3.2349 7.69459C2.2319 6.70657 1.22891 6.13771 0.510348 6.12274C0.121127 6.12274 0.0911865 6.16765 0.0911865 6.79639Z" fill="black"/>
<path d="M0.0911865 13.3832C0.0911865 13.9671 0.136097 14.0569 0.405558 14.0569C0.8846 14.0569 1.28879 14.3263 2.44149 15.4192C3.684 16.6317 4.31274 16.9311 5.55526 16.9461C6.76783 16.9611 7.62113 16.5569 8.62412 15.494C9.7319 14.3563 10.2259 14.0569 11.0792 14.0569C11.9774 14.0569 12.2319 14.1916 13.4145 15.3293C14.7169 16.5868 15.4654 16.9461 16.708 16.9461C17.9804 16.9461 18.669 16.5868 20.0014 15.2545C21.1241 14.1168 21.4385 13.982 22.5612 14.0868C23.2349 14.1617 23.3996 14.2515 24.3876 15.2096C25.7948 16.5719 26.5133 16.9461 27.7858 16.9461C29.0283 16.9461 29.7768 16.5868 31.0792 15.3293C32.2768 14.1916 32.5163 14.0569 33.4295 14.0569C34.2828 14.0569 34.5223 14.2066 35.9445 15.5539C37.1121 16.6766 37.7559 16.9611 39.0133 16.9461C40.196 16.9311 40.8397 16.6018 42.0523 15.4192C43.3397 14.1916 43.5792 14.0569 44.4774 14.0569C45.3756 14.0569 45.6301 14.1916 46.7978 15.3293C47.8606 16.3623 48.684 16.8563 49.4924 16.9311C50.0163 16.976 50.0163 16.9611 50.0612 16.3473C50.1062 15.7186 50.1062 15.7186 49.4774 15.5539C49.0133 15.4192 48.5343 15.0898 47.7708 14.3563C46.4984 13.1138 45.705 12.7096 44.4774 12.7096C43.2648 12.7096 42.5014 13.0838 41.2738 14.2814C39.3726 16.1078 38.5493 16.1377 36.7379 14.4012C35.3307 13.0689 34.6421 12.7245 33.3547 12.7096C32.0822 12.7096 31.5732 12.9641 30.196 14.2665C28.2648 16.1078 27.3217 16.1377 25.5253 14.3563C24.193 13.0539 23.5044 12.7096 22.2319 12.7096C20.9445 12.7245 20.2559 13.0539 18.9535 14.3413C17.1271 16.1377 16.2439 16.1227 14.2978 14.2665C12.9205 12.9641 12.4115 12.7096 11.1391 12.7096C9.86664 12.7245 9.1331 13.0838 7.80077 14.3563C6.01933 16.0928 5.12113 16.0928 3.30975 14.3563C2.17202 13.2485 1.25885 12.7096 0.540288 12.7096C0.106157 12.7096 0.0911865 12.7395 0.0911865 13.3832Z" fill="black"/>
</svg>
