<svg width="51" height="29" viewBox="0 0 51 29" fill="none" xmlns="http://www.w3.org/2000/svg">
<path d="M24.8422 0.951435C24.2874 1.15058 24.2732 1.30705 24.2732 6.85471V12.2317L24.6288 12.4593C24.9987 12.7011 25.4112 12.6442 25.7668 12.2886C25.9517 12.1036 25.9802 11.3071 25.9802 6.76936C25.9802 2.74375 25.9375 1.42085 25.8095 1.25016C25.5961 0.979885 25.1409 0.851862 24.8422 0.951435Z" fill="black"/>
<path d="M8.66866 6.71255C8.49796 6.9117 8.44106 7.18197 8.46951 7.56604C8.48374 7.83631 15.0413 15.4323 15.4539 15.6457C15.8237 15.8448 16.4069 15.603 16.6061 15.1763C16.7341 14.906 16.7056 14.7353 16.5349 14.4224C16.4069 14.1948 14.8564 12.3456 13.0641 10.3114C10.0769 6.88325 9.79241 6.61298 9.323 6.5703C9.02428 6.54185 8.75401 6.61298 8.66866 6.71255Z" fill="black"/>
<path d="M37.2178 10.3256C35.2263 12.2602 33.5051 14.0099 33.3913 14.2375C33.2206 14.5788 33.2206 14.6784 33.434 14.9914C33.6047 15.2616 33.7896 15.3612 34.1452 15.3612C34.572 15.3612 34.9418 15.0625 37.5876 12.502C41.8551 8.4053 42.1964 8.04968 42.1964 7.65139C42.1964 7.18197 41.7839 6.82636 41.2576 6.82636C40.9162 6.82636 40.2619 7.39535 37.2178 10.3256Z" fill="black"/>
<path d="M22.7228 14.5076C17.7441 15.546 13.9034 19.3867 12.9077 24.28C12.737 25.0624 12.609 25.8874 12.609 26.0866V26.4564H6.35008H0.0911865V27.4521V28.4479L25.0983 28.4194L50.0912 28.3768V27.4521V26.5275L43.875 26.4849L37.6588 26.4564L37.5734 25.7736C37.2747 23.4692 36.663 21.6911 35.6246 20.0979C33.9176 17.4806 31.4425 15.6314 28.5122 14.7779C27.3458 14.4365 23.8465 14.28 22.7228 14.5076ZM28.0428 16.6413C31.5137 17.7366 33.9888 20.1691 35.141 23.6115C35.3259 24.1947 35.5393 25.0766 35.5962 25.5603L35.6957 26.4564H25.0698H14.4582L14.5435 25.8447C15.2405 20.9941 18.4127 17.4521 22.993 16.428C24.3159 16.1292 26.7484 16.2288 28.0428 16.6413Z" fill="black"/>
<path d="M0.318822 19.0879C0.0201022 19.5005 0.0343269 19.9557 0.347271 20.2401C0.489519 20.3682 2.55211 20.8803 5.71 21.5346C10.774 22.6015 10.8309 22.6157 11.1865 22.3454C11.3857 22.2032 11.5564 21.9329 11.5848 21.748C11.6702 20.9941 11.5279 20.9514 6.26477 19.8276C3.53362 19.2586 1.12963 18.775 0.916262 18.775C0.674441 18.775 0.446845 18.8888 0.318822 19.0879Z" fill="black"/>
<path d="M43.4909 19.8419C38.3842 20.923 38.2135 20.9799 38.2135 21.6769C38.2135 21.8476 38.2704 22.0468 38.3273 22.1463C38.6402 22.63 39.0954 22.5873 44.1879 21.5204C49.4795 20.4251 49.7355 20.3398 49.7355 19.6143C49.7355 19.216 49.2235 18.7751 48.7825 18.7893C48.5549 18.7893 46.1794 19.2729 43.4909 19.8419Z" fill="black"/>
</svg>
