<svg width="51" height="28" viewBox="0 0 51 28" fill="none" xmlns="http://www.w3.org/2000/svg">
<path d="M24.8422 27.4966C24.2874 27.2974 24.2732 27.1409 24.2732 21.5933V16.2163L24.6288 15.9887C24.9987 15.7469 25.4112 15.8038 25.7668 16.1594C25.9517 16.3444 25.9802 17.1409 25.9802 21.6786C25.9802 25.7042 25.9375 27.0271 25.8095 27.1978C25.5961 27.4681 25.1409 27.5961 24.8422 27.4966Z" fill="black"/>
<path d="M8.66866 21.7353C8.49796 21.5362 8.44106 21.2659 8.46951 20.8818C8.48374 20.6116 15.0413 13.0156 15.4539 12.8022C15.8237 12.603 16.4069 12.8449 16.6061 13.2716C16.7341 13.5419 16.7056 13.7126 16.5349 14.0255C16.4069 14.2531 14.8564 16.1023 13.0641 18.1365C10.0769 21.5646 9.79241 21.8349 9.323 21.8776C9.02428 21.906 8.75401 21.8349 8.66866 21.7353Z" fill="black"/>
<path d="M37.2178 18.1222C35.2263 16.1877 33.5051 14.438 33.3913 14.2104C33.2206 13.869 33.2206 13.7695 33.434 13.4565C33.6047 13.1862 33.7896 13.0867 34.1452 13.0867C34.572 13.0867 34.9418 13.3854 37.5876 15.9458C41.8551 20.0426 42.1964 20.3982 42.1964 20.7965C42.1964 21.2659 41.7839 21.6215 41.2576 21.6215C40.9162 21.6215 40.2619 21.0525 37.2178 18.1222Z" fill="black"/>
<path d="M22.7228 13.9403C17.7441 12.9018 13.9034 9.06117 12.9077 4.16785C12.737 3.38549 12.609 2.56046 12.609 2.36131V1.99147H6.35008H0.0911865V0.995733V0L25.0983 0.0284495L50.0912 0.0711238V0.995733V1.92034L43.875 1.96302L37.6588 1.99147L37.5734 2.67425C37.2747 4.97866 36.663 6.75676 35.6246 8.34993C33.9176 10.9673 31.4425 12.8165 28.5122 13.67C27.3458 14.0114 23.8465 14.1679 22.7228 13.9403ZM28.0428 11.8065C31.5137 10.7112 33.9888 8.2788 35.141 4.83642C35.3259 4.2532 35.5393 3.37127 35.5962 2.88762L35.6957 1.99147H25.0698H14.4582L14.5435 2.60313C15.2405 7.45377 18.4127 10.9957 22.993 12.0199C24.3159 12.3186 26.7484 12.2191 28.0428 11.8065Z" fill="black"/>
<path d="M0.318822 9.35993C0.0201022 8.94741 0.0343269 8.49222 0.347271 8.20773C0.489519 8.0797 2.55211 7.56761 5.71 6.91328C10.774 5.84642 10.8309 5.83219 11.1865 6.10246C11.3857 6.24471 11.5564 6.51498 11.5848 6.6999C11.6702 7.45382 11.5279 7.49649 6.26477 8.62025C3.53362 9.18924 1.12963 9.67288 0.916261 9.67288C0.674441 9.67288 0.446845 9.55908 0.318822 9.35993Z" fill="black"/>
<path d="M43.4909 8.60596C38.3842 7.52488 38.2135 7.46798 38.2135 6.77096C38.2135 6.60027 38.2704 6.40112 38.3273 6.30155C38.6402 5.81791 39.0954 5.86058 44.1879 6.92744C49.4795 8.02274 49.7355 8.10809 49.7355 8.83355C49.7355 9.23185 49.2235 9.67281 48.7825 9.65859C48.5549 9.65859 46.1794 9.17495 43.4909 8.60596Z" fill="black"/>
</svg>
