<svg width="49" height="20" viewBox="0 0 49 20" fill="none" xmlns="http://www.w3.org/2000/svg">
<path d="M9.90905 1.25567C9.30912 4.56229 9.82534 6.45975 11.5554 7.35268C12.3227 7.74333 13.7458 7.67357 14.4155 7.19921L14.876 6.86436L14.1644 6.62718C12.9087 6.20862 11.8344 5.25989 11.0671 3.89259L10.7741 3.34847L11.1647 3.83679C12.3646 5.30174 13.2994 5.97144 14.6109 6.32023L15.155 6.47371L15.4201 5.88772C15.9503 4.70181 15.6573 3.46008 14.6806 2.8462C14.29 2.60901 14.0807 2.58111 13.2854 2.65087C11.7786 2.79039 10.8578 2.19046 10.3834 0.739452L10.1462 -1.90735e-06L9.90905 1.25567Z" fill="black"/>
<path d="M36.5991 5.46916C34.9109 6.33418 34.7296 8.07818 36.2224 9.19433C36.7386 9.55708 37.785 9.57104 38.3431 9.20828L38.7477 8.9432L38.2036 8.48278C37.8967 8.23165 37.5339 8.02237 37.3665 8.02237C37.213 8.02237 36.9619 7.8968 36.8084 7.72938C36.4875 7.38058 36.641 7.07364 37.3246 6.73879C38.7477 5.99933 40.7987 7.18525 40.7987 8.73392C40.7987 10.0315 40.0453 10.9941 38.8872 11.1755C38.5245 11.2313 37.4781 11.2034 36.5433 11.1058C34.2133 10.8825 31.7159 10.9104 30.6137 11.1755C29.1627 11.5104 27.8233 12.2638 26.5537 13.4218C25.005 14.8449 24.2516 15.1797 22.4239 15.2495C19.9684 15.3471 16.8153 14.4682 12.7971 12.5847C10.9136 11.6917 9.79741 11.2592 8.36036 10.8965C8.20689 10.8546 8.40222 10.8546 8.77892 10.8965C9.56023 10.9802 10.6764 11.3569 12.6157 12.1661C15.2526 13.2823 18.1267 13.7148 20.2335 13.3241C22.5774 12.8916 24.6702 11.7057 25.3399 10.4082C26.484 8.2177 24.9911 5.3715 22.703 5.3715C21.8101 5.3715 21.0845 5.65054 20.5404 6.20861C20.0521 6.68298 20.0102 6.80855 20.0102 7.47824C20.0102 8.45488 20.373 9.06876 21.1683 9.41756C22.2705 9.91983 22.8425 9.75241 22.703 8.95715C22.6332 8.48278 22.5914 8.44093 22.1588 8.44093C21.1962 8.44093 20.8055 7.43639 21.545 6.87831C22.0054 6.54346 23.0936 6.51556 23.568 6.8225C24.3912 7.36663 24.8097 8.69206 24.433 9.58499C24.154 10.2407 23.4982 10.8267 22.4518 11.3569C19.8707 12.6265 16.6478 12.5847 13.397 11.2034C10.0206 9.76636 8.75102 9.45942 6.68613 9.59894C4.63519 9.73846 2.66796 10.3942 0.937921 11.5383C0.00314012 12.1382 -0.0945236 12.3475 0.337987 12.9056C0.491459 13.1009 0.617026 13.3102 0.617026 13.3939C0.617026 13.4776 1.27277 13.5473 2.26336 13.5613C5.22117 13.5892 7.92785 14.5658 10.5927 16.547C12.2809 17.8166 12.9506 18.2073 14.3039 18.7375C16.606 19.6583 19.6754 20.1048 22.7309 19.9792C25.8003 19.8536 27.3629 19.3374 29.079 17.8585C30.0696 16.9935 31.5206 16.2401 32.6926 15.975C33.1809 15.8634 34.018 15.8215 35.1342 15.8773C36.8921 15.9471 37.227 16.0308 41.9706 17.4399C43.9518 18.0259 45.3889 18.1933 46.3236 17.9283C47.7188 17.5376 48.6257 16.0168 48.5978 14.1194C48.5839 12.9614 48.4304 12.473 47.8305 11.608C46.1981 9.292 42.3055 10.1152 42.0822 12.8218C41.9846 14.0496 42.6543 15.1937 43.5193 15.2774C44.0634 15.3332 44.3704 15.2774 44.6494 15.0681C44.9005 14.8728 44.8866 14.8449 44.189 14.1891C43.7425 13.7845 43.4495 13.3939 43.4495 13.2125C43.4495 12.3196 44.3564 11.5662 45.2633 11.6917C46.798 11.901 47.5933 13.5613 46.9933 15.3192C46.8678 15.682 46.6166 16.1006 46.4213 16.254C45.626 16.8819 44.7192 16.7842 41.1893 15.6959C37.9664 14.7054 36.5433 14.4124 34.6598 14.3984C32.0787 14.3845 30.0278 15.11 28.1861 16.6865C27.1816 17.5376 26.3026 17.998 25.1446 18.2771C22.3821 18.9328 17.6384 18.5282 14.7643 17.3702C13.69 16.9377 12.8529 16.4214 10.7322 14.8449C9.32305 13.8124 7.69067 13.0032 6.10015 12.5707L4.87237 12.2219H6.21176C8.01156 12.208 9.28119 12.5428 11.7088 13.7008C18.336 16.8261 22.996 17.5516 25.8422 15.8913C26.2049 15.682 26.9444 15.0821 27.4885 14.5658C28.6047 13.5055 29.7627 12.8637 31.13 12.5428C31.9113 12.3475 32.4554 12.3335 34.2412 12.4312C35.4272 12.5009 37.1572 12.5428 38.078 12.5568C39.529 12.5568 39.822 12.5149 40.3103 12.2498C41.5381 11.5941 42.0822 10.6593 42.166 9.04086C42.2218 8.06422 42.1799 7.81309 41.9148 7.26896C41.0079 5.3715 38.4826 4.52043 36.5991 5.46916Z" fill="black"/>
</svg>
